<svg xmlns="http://www.w3.org/2000/svg" xmlns:xlink="http://www.w3.org/1999/xlink" width="500" zoomAndPan="magnify" viewBox="0 0 375 374.999991" height="500" preserveAspectRatio="xMidYMid meet" version="1.0"><defs><clipPath id="184c7c7683"><path d="M 238 34 L 365 34 L 365 161 L 238 161 Z M 238 34 " clip-rule="nonzero"/></clipPath><clipPath id="f5f9fb8c15"><path d="M 273.148438 0 L 398.304688 125.15625 L 314.511719 208.949219 L 189.355469 83.792969 Z M 273.148438 0 " clip-rule="nonzero"/></clipPath><clipPath id="29f2c5289a"><path d="M 273.148438 0 L 398.304688 125.15625 L 314.511719 208.949219 L 189.355469 83.792969 Z M 273.148438 0 " clip-rule="nonzero"/></clipPath><clipPath id="0240323944"><path d="M 238 75 L 324 75 L 324 161 L 238 161 Z M 238 75 " clip-rule="nonzero"/></clipPath><clipPath id="f1f8dcfd32"><path d="M 273.148438 0 L 398.304688 125.15625 L 314.511719 208.949219 L 189.355469 83.792969 Z M 273.148438 0 " clip-rule="nonzero"/></clipPath><clipPath id="ec01ab06fb"><path d="M 273.148438 0 L 398.304688 125.15625 L 314.511719 208.949219 L 189.355469 83.792969 Z M 273.148438 0 " clip-rule="nonzero"/></clipPath><clipPath id="c8a4bbbdaf"><path d="M 238 115 L 283 115 L 283 161 L 238 161 Z M 238 115 " clip-rule="nonzero"/></clipPath><clipPath id="828dbc304e"><path d="M 273.148438 0 L 398.304688 125.15625 L 314.511719 208.949219 L 189.355469 83.792969 Z M 273.148438 0 " clip-rule="nonzero"/></clipPath><clipPath id="df3c3c6caf"><path d="M 273.148438 0 L 398.304688 125.15625 L 314.511719 208.949219 L 189.355469 83.792969 Z M 273.148438 0 " clip-rule="nonzero"/></clipPath><clipPath id="9584c76112"><path d="M 215.023438 113.25 L 284.625 113.25 L 284.625 162.675781 L 215.023438 162.675781 Z M 215.023438 113.25 " clip-rule="nonzero"/></clipPath><clipPath id="03f44e91ca"><path d="M 109 130 L 270 130 L 270 290 L 109 290 Z M 109 130 " clip-rule="nonzero"/></clipPath><clipPath id="9f48160b21"><path d="M 149.132812 345.394531 L 53.144531 249.40625 L 229.214844 73.335938 L 325.203125 169.324219 Z M 149.132812 345.394531 " clip-rule="nonzero"/></clipPath><clipPath id="f91f336bfb"><path d="M 53.167969 249.429688 L 149.160156 345.421875 L 325.226562 169.351562 L 229.238281 73.359375 Z M 53.167969 249.429688 " clip-rule="nonzero"/></clipPath><clipPath id="17f63a60d3"><path d="M 8 201 L 99 201 L 99 292 L 8 292 Z M 8 201 " clip-rule="nonzero"/></clipPath><clipPath id="e8d4bc6d5f"><path d="M 129.890625 268.820312 L 75.796875 322.910156 L -23.371094 223.742188 L 30.71875 169.648438 Z M 129.890625 268.820312 " clip-rule="nonzero"/></clipPath><clipPath id="e6ef649ca1"><path d="M 75.730469 322.976562 L 129.824219 268.882812 L 30.65625 169.714844 L -23.4375 223.808594 Z M 75.730469 322.976562 " clip-rule="nonzero"/></clipPath></defs><rect x="-37.5" width="450" fill="#ffffff" y="-37.499999" height="449.999989" fill-opacity="1"/><rect x="-37.5" width="450" fill="#ffffff" y="-37.499999" height="449.999989" fill-opacity="1"/><g clip-path="url(#184c7c7683)"><g clip-path="url(#f5f9fb8c15)"><g clip-path="url(#29f2c5289a)"><path fill="#485de6" d="M 364.226562 159.003906 C 363.511719 90.617188 308.386719 35.257812 240.101562 34.183594 C 238.984375 34.160156 238.058594 35.082031 238.054688 36.195312 L 238.054688 54.671875 C 296.414062 54.671875 343.722656 101.984375 343.71875 160.335938 L 362.898438 160.332031 C 363.628906 160.335938 364.234375 159.730469 364.226562 159.003906 " fill-opacity="1" fill-rule="nonzero"/></g></g></g><g clip-path="url(#0240323944)"><g clip-path="url(#f1f8dcfd32)"><g clip-path="url(#ec01ab06fb)"><path fill="#485de6" d="M 240.125 75.378906 C 239 75.359375 238.058594 76.289062 238.058594 77.410156 L 238.058594 94.296875 C 274.527344 94.296875 304.09375 123.867188 304.09375 160.332031 L 321.6875 160.339844 C 322.421875 160.339844 323.035156 159.707031 323.019531 158.976562 C 322.3125 113.375 285.644531 76.46875 240.121094 75.375 " fill-opacity="1" fill-rule="nonzero"/></g></g></g><g clip-path="url(#c8a4bbbdaf)"><g clip-path="url(#828dbc304e)"><g clip-path="url(#df3c3c6caf)"><path fill="#485de6" d="M 240.140625 115.972656 C 239.015625 115.921875 238.058594 116.867188 238.054688 118 L 238.058594 132.9375 C 253.183594 132.941406 265.449219 145.207031 265.449219 160.332031 L 281.113281 160.339844 C 281.84375 160.339844 282.476562 159.707031 282.453125 158.96875 C 281.742188 135.734375 263.277344 117.039062 240.140625 115.972656 " fill-opacity="1" fill-rule="nonzero"/></g></g></g><g clip-path="url(#9584c76112)"><path fill="#ffffff" d="M 215.023438 113.25 L 284.527344 113.25 L 284.527344 162.675781 L 215.023438 162.675781 Z M 215.023438 113.25 " fill-opacity="1" fill-rule="nonzero"/></g><g clip-path="url(#03f44e91ca)"><g clip-path="url(#9f48160b21)"><g clip-path="url(#f91f336bfb)"><path fill="#43b647" d="M 229.601562 249.984375 C 273.527344 206.058594 269.066406 130.390625 269.066406 130.390625 C 269.066406 130.390625 192.472656 125.003906 148.546875 168.929688 C 104.621094 212.855469 110.003906 289.453125 110.003906 289.453125 C 110.003906 289.453125 185.671875 293.910156 229.601562 249.984375 " fill-opacity="1" fill-rule="nonzero"/></g></g></g><g clip-path="url(#17f63a60d3)"><g clip-path="url(#e8d4bc6d5f)"><g clip-path="url(#e6ef649ca1)"><path fill="#359238" d="M 76.042969 223.402344 C 51.253906 198.613281 8.546875 201.132812 8.546875 201.132812 C 8.546875 201.132812 5.507812 244.359375 30.296875 269.148438 C 55.089844 293.941406 98.320312 290.902344 98.320312 290.902344 C 98.320312 290.902344 100.835938 248.195312 76.042969 223.402344 " fill-opacity="1" fill-rule="nonzero"/></g></g></g></svg>