<svg xmlns="http://www.w3.org/2000/svg" xmlns:xlink="http://www.w3.org/1999/xlink" width="500" zoomAndPan="magnify" viewBox="0 0 375 374.999991" height="500" preserveAspectRatio="xMidYMid meet" version="1.0"><defs><clipPath id="0aca20eb55"><path d="M 238 34 L 365 34 L 365 161 L 238 161 Z M 238 34 " clip-rule="nonzero"/></clipPath><clipPath id="a3bf10bae8"><path d="M 273.148438 0 L 398.304688 125.15625 L 314.511719 208.949219 L 189.355469 83.792969 Z M 273.148438 0 " clip-rule="nonzero"/></clipPath><clipPath id="7fdd227cb4"><path d="M 273.148438 0 L 398.304688 125.15625 L 314.511719 208.949219 L 189.355469 83.792969 Z M 273.148438 0 " clip-rule="nonzero"/></clipPath><clipPath id="63cd7b01fc"><path d="M 238 75 L 324 75 L 324 161 L 238 161 Z M 238 75 " clip-rule="nonzero"/></clipPath><clipPath id="d7b4b5d579"><path d="M 273.148438 0 L 398.304688 125.15625 L 314.511719 208.949219 L 189.355469 83.792969 Z M 273.148438 0 " clip-rule="nonzero"/></clipPath><clipPath id="54f454895f"><path d="M 273.148438 0 L 398.304688 125.15625 L 314.511719 208.949219 L 189.355469 83.792969 Z M 273.148438 0 " clip-rule="nonzero"/></clipPath><clipPath id="815b0031ee"><path d="M 238 115 L 283 115 L 283 161 L 238 161 Z M 238 115 " clip-rule="nonzero"/></clipPath><clipPath id="f60cc7c22c"><path d="M 273.148438 0 L 398.304688 125.15625 L 314.511719 208.949219 L 189.355469 83.792969 Z M 273.148438 0 " clip-rule="nonzero"/></clipPath><clipPath id="247c5c32b7"><path d="M 273.148438 0 L 398.304688 125.15625 L 314.511719 208.949219 L 189.355469 83.792969 Z M 273.148438 0 " clip-rule="nonzero"/></clipPath><clipPath id="0f8d38f3d3"><path d="M 215.023438 113.25 L 284.625 113.25 L 284.625 162.675781 L 215.023438 162.675781 Z M 215.023438 113.25 " clip-rule="nonzero"/></clipPath><clipPath id="63d83ce5a7"><path d="M 109 130 L 270 130 L 270 290 L 109 290 Z M 109 130 " clip-rule="nonzero"/></clipPath><clipPath id="1be269d749"><path d="M 149.132812 345.394531 L 53.144531 249.40625 L 229.214844 73.335938 L 325.203125 169.324219 Z M 149.132812 345.394531 " clip-rule="nonzero"/></clipPath><clipPath id="312556a159"><path d="M 53.167969 249.429688 L 149.160156 345.421875 L 325.226562 169.351562 L 229.238281 73.359375 Z M 53.167969 249.429688 " clip-rule="nonzero"/></clipPath><clipPath id="76f35be580"><path d="M 8 201 L 99 201 L 99 292 L 8 292 Z M 8 201 " clip-rule="nonzero"/></clipPath><clipPath id="5fc630b7fe"><path d="M 129.890625 268.820312 L 75.796875 322.910156 L -23.371094 223.742188 L 30.71875 169.648438 Z M 129.890625 268.820312 " clip-rule="nonzero"/></clipPath><clipPath id="1601ce9c2d"><path d="M 75.730469 322.976562 L 129.824219 268.882812 L 30.65625 169.714844 L -23.4375 223.804688 Z M 75.730469 322.976562 " clip-rule="nonzero"/></clipPath></defs><rect x="-37.5" width="450" fill="#ffffff" y="-37.499999" height="449.999989" fill-opacity="1"/><rect x="-37.5" width="450" fill="#201f1f" y="-37.499999" height="449.999989" fill-opacity="1"/><g clip-path="url(#0aca20eb55)"><g clip-path="url(#a3bf10bae8)"><g clip-path="url(#7fdd227cb4)"><path fill="#485de6" d="M 364.226562 159.003906 C 363.511719 90.617188 308.386719 35.257812 240.101562 34.183594 C 238.984375 34.160156 238.058594 35.082031 238.054688 36.195312 L 238.054688 54.671875 C 296.414062 54.671875 343.722656 101.984375 343.71875 160.335938 L 362.898438 160.332031 C 363.628906 160.335938 364.234375 159.730469 364.226562 159.003906 " fill-opacity="1" fill-rule="nonzero"/></g></g></g><g clip-path="url(#63cd7b01fc)"><g clip-path="url(#d7b4b5d579)"><g clip-path="url(#54f454895f)"><path fill="#485de6" d="M 240.125 75.378906 C 239 75.359375 238.058594 76.289062 238.058594 77.410156 L 238.058594 94.296875 C 274.527344 94.296875 304.09375 123.867188 304.09375 160.332031 L 321.6875 160.339844 C 322.421875 160.339844 323.035156 159.707031 323.019531 158.976562 C 322.3125 113.375 285.644531 76.46875 240.121094 75.375 " fill-opacity="1" fill-rule="nonzero"/></g></g></g><g clip-path="url(#815b0031ee)"><g clip-path="url(#f60cc7c22c)"><g clip-path="url(#247c5c32b7)"><path fill="#485de6" d="M 240.140625 115.972656 C 239.015625 115.921875 238.058594 116.867188 238.054688 118 L 238.058594 132.9375 C 253.183594 132.941406 265.449219 145.207031 265.449219 160.332031 L 281.113281 160.339844 C 281.84375 160.339844 282.476562 159.707031 282.453125 158.96875 C 281.742188 135.734375 263.277344 117.039062 240.140625 115.972656 " fill-opacity="1" fill-rule="nonzero"/></g></g></g><g clip-path="url(#0f8d38f3d3)"><path fill="#201f1f" d="M 215.023438 113.25 L 284.527344 113.25 L 284.527344 162.675781 L 215.023438 162.675781 Z M 215.023438 113.25 " fill-opacity="1" fill-rule="nonzero"/></g><g clip-path="url(#63d83ce5a7)"><g clip-path="url(#1be269d749)"><g clip-path="url(#312556a159)"><path fill="#43b647" d="M 229.601562 249.984375 C 273.527344 206.058594 269.066406 130.390625 269.066406 130.390625 C 269.066406 130.390625 192.472656 125.003906 148.546875 168.929688 C 104.621094 212.855469 110.003906 289.453125 110.003906 289.453125 C 110.003906 289.453125 185.671875 293.910156 229.601562 249.984375 " fill-opacity="1" fill-rule="nonzero"/></g></g></g><g clip-path="url(#76f35be580)"><g clip-path="url(#5fc630b7fe)"><g clip-path="url(#1601ce9c2d)"><path fill="#359238" d="M 76.042969 223.402344 C 51.253906 198.613281 8.546875 201.128906 8.546875 201.128906 C 8.546875 201.128906 5.507812 244.359375 30.296875 269.148438 C 55.089844 293.941406 98.320312 290.902344 98.320312 290.902344 C 98.320312 290.902344 100.835938 248.195312 76.042969 223.402344 " fill-opacity="1" fill-rule="nonzero"/></g></g></g></svg>