<svg xmlns="http://www.w3.org/2000/svg" xmlns:xlink="http://www.w3.org/1999/xlink" width="500" zoomAndPan="magnify" viewBox="0 0 375 374.999991" height="500" preserveAspectRatio="xMidYMid meet" version="1.0"><defs><g/><clipPath id="ffe34dc030"><path d="M 238 46 L 279 46 L 279 88 L 238 88 Z M 238 46 " clip-rule="nonzero"/></clipPath><clipPath id="6fc63c110c"><path d="M 249.414062 35.402344 L 289.71875 75.707031 L 262.671875 102.753906 L 222.367188 62.449219 Z M 249.414062 35.402344 " clip-rule="nonzero"/></clipPath><clipPath id="79a3ca758d"><path d="M 249.414062 35.402344 L 289.71875 75.707031 L 262.671875 102.753906 L 222.367188 62.449219 Z M 249.414062 35.402344 " clip-rule="nonzero"/></clipPath><clipPath id="1e93ef8b80"><path d="M 238 59 L 266 59 L 266 88 L 238 88 Z M 238 59 " clip-rule="nonzero"/></clipPath><clipPath id="7ae6b353c9"><path d="M 249.414062 35.402344 L 289.71875 75.707031 L 262.671875 102.753906 L 222.367188 62.449219 Z M 249.414062 35.402344 " clip-rule="nonzero"/></clipPath><clipPath id="113254510f"><path d="M 249.414062 35.402344 L 289.71875 75.707031 L 262.671875 102.753906 L 222.367188 62.449219 Z M 249.414062 35.402344 " clip-rule="nonzero"/></clipPath><clipPath id="74e8a8c59d"><path d="M 238 72 L 253 72 L 253 88 L 238 88 Z M 238 72 " clip-rule="nonzero"/></clipPath><clipPath id="f0c0a45f49"><path d="M 249.414062 35.402344 L 289.71875 75.707031 L 262.671875 102.753906 L 222.367188 62.449219 Z M 249.414062 35.402344 " clip-rule="nonzero"/></clipPath><clipPath id="18f63aa91e"><path d="M 249.414062 35.402344 L 289.71875 75.707031 L 262.671875 102.753906 L 222.367188 62.449219 Z M 249.414062 35.402344 " clip-rule="nonzero"/></clipPath><clipPath id="cf374658cf"><path d="M 233.402344 72.53125 L 253.238281 72.53125 L 253.238281 92.605469 L 233.402344 92.605469 Z M 233.402344 72.53125 " clip-rule="nonzero"/></clipPath><clipPath id="b20819ec1f"><path d="M 196 77 L 249 77 L 249 130 L 196 130 Z M 196 77 " clip-rule="nonzero"/></clipPath><clipPath id="844c08bfc2"><path d="M 209.308594 147.078125 L 178.015625 115.789062 L 234.761719 59.042969 L 266.050781 90.335938 Z M 209.308594 147.078125 " clip-rule="nonzero"/></clipPath><clipPath id="d321255b6c"><path d="M 178.28125 116.054688 L 209.570312 147.34375 L 266.316406 90.597656 L 235.027344 59.308594 Z M 178.28125 116.054688 " clip-rule="nonzero"/></clipPath><clipPath id="447fd597e3"><path d="M 163 100 L 193 100 L 193 130 L 163 130 Z M 163 100 " clip-rule="nonzero"/></clipPath><clipPath id="1e9a74329e"><path d="M 203.085938 122.332031 L 185.585938 139.832031 L 153.234375 107.480469 L 170.738281 89.980469 Z M 203.085938 122.332031 " clip-rule="nonzero"/></clipPath><clipPath id="de5cbda63c"><path d="M 185.578125 139.839844 L 203.078125 122.339844 L 170.730469 89.988281 L 153.226562 107.488281 Z M 185.578125 139.839844 " clip-rule="nonzero"/></clipPath></defs><rect x="-37.5" width="450" fill="#ffffff" y="-37.499999" height="449.999989" fill-opacity="1"/><rect x="-37.5" width="450" fill="#35384b" y="-37.499999" height="449.999989" fill-opacity="1"/><g clip-path="url(#ffe34dc030)"><g clip-path="url(#6fc63c110c)"><g clip-path="url(#79a3ca758d)"><path fill="#485de6" d="M 278.863281 86.816406 C 278.632812 64.703125 260.808594 46.804688 238.726562 46.457031 C 238.367188 46.449219 238.066406 46.746094 238.066406 47.105469 L 238.066406 53.082031 C 256.9375 53.082031 272.234375 68.378906 272.234375 87.25 L 278.433594 87.246094 C 278.671875 87.25 278.867188 87.054688 278.863281 86.816406 " fill-opacity="1" fill-rule="nonzero"/></g></g></g><g clip-path="url(#1e93ef8b80)"><g clip-path="url(#7ae6b353c9)"><g clip-path="url(#113254510f)"><path fill="#485de6" d="M 238.734375 59.777344 C 238.371094 59.769531 238.066406 60.070312 238.066406 60.433594 L 238.066406 65.894531 C 249.859375 65.894531 259.421875 75.457031 259.421875 87.246094 L 265.109375 87.25 C 265.347656 87.25 265.546875 87.046875 265.539062 86.808594 C 265.3125 72.0625 253.453125 60.128906 238.734375 59.777344 " fill-opacity="1" fill-rule="nonzero"/></g></g></g><g clip-path="url(#74e8a8c59d)"><g clip-path="url(#f0c0a45f49)"><g clip-path="url(#18f63aa91e)"><path fill="#485de6" d="M 238.742188 72.902344 C 238.375 72.886719 238.066406 73.191406 238.066406 73.558594 L 238.066406 78.390625 C 242.957031 78.390625 246.925781 82.355469 246.925781 87.246094 L 251.988281 87.25 C 252.226562 87.25 252.429688 87.046875 252.421875 86.804688 C 252.191406 79.292969 246.222656 73.246094 238.742188 72.902344 " fill-opacity="1" fill-rule="nonzero"/></g></g></g><g clip-path="url(#cf374658cf)"><path fill="#35384b" d="M 233.402344 72.53125 L 253.238281 72.53125 L 253.238281 92.601562 L 233.402344 92.601562 Z M 233.402344 72.53125 " fill-opacity="1" fill-rule="nonzero"/></g><g clip-path="url(#b20819ec1f)"><g clip-path="url(#844c08bfc2)"><g clip-path="url(#d321255b6c)"><path fill="#43b647" d="M 235.324219 116.230469 C 249.523438 102.03125 248.082031 77.566406 248.082031 77.566406 C 248.082031 77.566406 223.320312 75.824219 209.121094 90.027344 C 194.917969 104.226562 196.660156 128.992188 196.660156 128.992188 C 196.660156 128.992188 221.125 130.429688 235.324219 116.230469 " fill-opacity="1" fill-rule="nonzero"/></g></g></g><g clip-path="url(#447fd597e3)"><g clip-path="url(#1e9a74329e)"><g clip-path="url(#de5cbda63c)"><path fill="#359238" d="M 185.675781 107.644531 C 177.660156 99.628906 163.855469 100.441406 163.855469 100.441406 C 163.855469 100.441406 162.871094 114.417969 170.886719 122.433594 C 178.898438 130.445312 192.875 129.464844 192.875 129.464844 C 192.875 129.464844 193.6875 115.660156 185.675781 107.644531 " fill-opacity="1" fill-rule="nonzero"/></g></g></g><g fill="#ffffff" fill-opacity="1"><g transform="translate(0.655509, 207.190276)"><g><path d="M 79.671875 -35.515625 C 79.671875 -35.242188 79.539062 -33.378906 79.28125 -29.921875 L 25.140625 -29.921875 C 26.117188 -25.492188 28.425781 -21.992188 32.0625 -19.421875 C 35.695312 -16.847656 40.21875 -15.5625 45.625 -15.5625 C 49.351562 -15.5625 52.65625 -16.113281 55.53125 -17.21875 C 58.414062 -18.332031 61.097656 -20.085938 63.578125 -22.484375 L 74.625 -10.515625 C 67.882812 -2.796875 58.039062 1.0625 45.09375 1.0625 C 37.019531 1.0625 29.878906 -0.507812 23.671875 -3.65625 C 17.460938 -6.800781 12.671875 -11.164062 9.296875 -16.75 C 5.929688 -22.34375 4.25 -28.6875 4.25 -35.78125 C 4.25 -42.789062 5.910156 -49.109375 9.234375 -54.734375 C 12.566406 -60.367188 17.132812 -64.757812 22.9375 -67.90625 C 28.75 -71.050781 35.25 -72.625 42.4375 -72.625 C 49.4375 -72.625 55.773438 -71.113281 61.453125 -68.09375 C 67.128906 -65.082031 71.582031 -60.757812 74.8125 -55.125 C 78.050781 -49.5 79.671875 -42.960938 79.671875 -35.515625 Z M 42.5625 -56.9375 C 37.863281 -56.9375 33.914062 -55.601562 30.71875 -52.9375 C 27.53125 -50.28125 25.582031 -46.644531 24.875 -42.03125 L 60.125 -42.03125 C 59.414062 -46.550781 57.460938 -50.164062 54.265625 -52.875 C 51.078125 -55.582031 47.175781 -56.9375 42.5625 -56.9375 Z M 42.5625 -56.9375 "/></g></g></g><g fill="#ffffff" fill-opacity="1"><g transform="translate(77.929131, 207.190276)"><g><path d="M 44.15625 1.0625 C 36.53125 1.0625 29.679688 -0.507812 23.609375 -3.65625 C 17.535156 -6.800781 12.789062 -11.164062 9.375 -16.75 C 5.957031 -22.34375 4.25 -28.6875 4.25 -35.78125 C 4.25 -42.875 5.957031 -49.210938 9.375 -54.796875 C 12.789062 -60.390625 17.535156 -64.757812 23.609375 -67.90625 C 29.679688 -71.050781 36.53125 -72.625 44.15625 -72.625 C 51.695312 -72.625 58.28125 -71.050781 63.90625 -67.90625 C 69.539062 -64.757812 73.644531 -60.257812 76.21875 -54.40625 L 60.125 -45.75 C 56.394531 -52.3125 51.03125 -55.59375 44.03125 -55.59375 C 38.625 -55.59375 34.144531 -53.816406 30.59375 -50.265625 C 27.039062 -46.722656 25.265625 -41.894531 25.265625 -35.78125 C 25.265625 -29.664062 27.039062 -24.832031 30.59375 -21.28125 C 34.144531 -17.738281 38.625 -15.96875 44.03125 -15.96875 C 51.125 -15.96875 56.488281 -19.25 60.125 -25.8125 L 76.21875 -17.03125 C 73.644531 -11.351562 69.539062 -6.914062 63.90625 -3.71875 C 58.28125 -0.53125 51.695312 1.0625 44.15625 1.0625 Z M 44.15625 1.0625 "/></g></g></g><g fill="#ffffff" fill-opacity="1"><g transform="translate(149.882664, 207.190276)"><g><path d="M 43.625 1.0625 C 36.09375 1.0625 29.332031 -0.507812 23.34375 -3.65625 C 17.351562 -6.800781 12.671875 -11.164062 9.296875 -16.75 C 5.929688 -22.34375 4.25 -28.6875 4.25 -35.78125 C 4.25 -42.875 5.929688 -49.210938 9.296875 -54.796875 C 12.671875 -60.390625 17.351562 -64.757812 23.34375 -67.90625 C 29.332031 -71.050781 36.09375 -72.625 43.625 -72.625 C 51.164062 -72.625 57.90625 -71.050781 63.84375 -67.90625 C 69.789062 -64.757812 74.445312 -60.390625 77.8125 -54.796875 C 81.1875 -49.210938 82.875 -42.875 82.875 -35.78125 C 82.875 -28.6875 81.1875 -22.34375 77.8125 -16.75 C 74.445312 -11.164062 69.789062 -6.800781 63.84375 -3.65625 C 57.90625 -0.507812 51.164062 1.0625 43.625 1.0625 Z M 43.625 -15.96875 C 48.945312 -15.96875 53.316406 -17.757812 56.734375 -21.34375 C 60.148438 -24.9375 61.859375 -29.75 61.859375 -35.78125 C 61.859375 -41.8125 60.148438 -46.617188 56.734375 -50.203125 C 53.316406 -53.796875 48.945312 -55.59375 43.625 -55.59375 C 38.300781 -55.59375 33.910156 -53.796875 30.453125 -50.203125 C 26.992188 -46.617188 25.265625 -41.8125 25.265625 -35.78125 C 25.265625 -29.75 26.992188 -24.9375 30.453125 -21.34375 C 33.910156 -17.757812 38.300781 -15.96875 43.625 -15.96875 Z M 43.625 -15.96875 "/></g></g></g><g fill="#485de6" fill-opacity="1"><g transform="translate(0.271803, 304.756949)"><g><path d="M 33.65625 1.0625 C 27.707031 1.0625 21.894531 0.332031 16.21875 -1.125 C 10.550781 -2.59375 6.03125 -4.4375 2.65625 -6.65625 L 9.578125 -21.546875 C 12.765625 -19.503906 16.617188 -17.835938 21.140625 -16.546875 C 25.671875 -15.265625 30.109375 -14.625 34.453125 -14.625 C 43.234375 -14.625 47.625 -16.800781 47.625 -21.15625 C 47.625 -23.1875 46.425781 -24.644531 44.03125 -25.53125 C 41.632812 -26.425781 37.953125 -27.179688 32.984375 -27.796875 C 27.128906 -28.679688 22.296875 -29.703125 18.484375 -30.859375 C 14.671875 -32.015625 11.367188 -34.054688 8.578125 -36.984375 C 5.785156 -39.910156 4.390625 -44.078125 4.390625 -49.484375 C 4.390625 -54.003906 5.695312 -58.015625 8.3125 -61.515625 C 10.925781 -65.023438 14.738281 -67.753906 19.75 -69.703125 C 24.757812 -71.648438 30.679688 -72.625 37.515625 -72.625 C 42.566406 -72.625 47.597656 -72.066406 52.609375 -70.953125 C 57.617188 -69.847656 61.765625 -68.320312 65.046875 -66.375 L 58.125 -51.609375 C 51.832031 -55.160156 44.960938 -56.9375 37.515625 -56.9375 C 33.078125 -56.9375 29.75 -56.3125 27.53125 -55.0625 C 25.3125 -53.820312 24.203125 -52.226562 24.203125 -50.28125 C 24.203125 -48.0625 25.398438 -46.507812 27.796875 -45.625 C 30.191406 -44.738281 34.003906 -43.894531 39.234375 -43.09375 C 45.085938 -42.125 49.875 -41.082031 53.59375 -39.96875 C 57.320312 -38.863281 60.5625 -36.847656 63.3125 -33.921875 C 66.0625 -30.992188 67.4375 -26.914062 67.4375 -21.6875 C 67.4375 -17.25 66.101562 -13.300781 63.4375 -9.84375 C 60.78125 -6.382812 56.898438 -3.703125 51.796875 -1.796875 C 46.703125 0.109375 40.65625 1.0625 33.65625 1.0625 Z M 33.65625 1.0625 "/></g></g></g><g fill="#485de6" fill-opacity="1"><g transform="translate(64.245182, 304.756949)"><g><path d="M 79.671875 -35.515625 C 79.671875 -35.242188 79.539062 -33.378906 79.28125 -29.921875 L 25.140625 -29.921875 C 26.117188 -25.492188 28.425781 -21.992188 32.0625 -19.421875 C 35.695312 -16.847656 40.21875 -15.5625 45.625 -15.5625 C 49.351562 -15.5625 52.65625 -16.113281 55.53125 -17.21875 C 58.414062 -18.332031 61.097656 -20.085938 63.578125 -22.484375 L 74.625 -10.515625 C 67.882812 -2.796875 58.039062 1.0625 45.09375 1.0625 C 37.019531 1.0625 29.878906 -0.507812 23.671875 -3.65625 C 17.460938 -6.800781 12.671875 -11.164062 9.296875 -16.75 C 5.929688 -22.34375 4.25 -28.6875 4.25 -35.78125 C 4.25 -42.789062 5.910156 -49.109375 9.234375 -54.734375 C 12.566406 -60.367188 17.132812 -64.757812 22.9375 -67.90625 C 28.75 -71.050781 35.25 -72.625 42.4375 -72.625 C 49.4375 -72.625 55.773438 -71.113281 61.453125 -68.09375 C 67.128906 -65.082031 71.582031 -60.757812 74.8125 -55.125 C 78.050781 -49.5 79.671875 -42.960938 79.671875 -35.515625 Z M 42.5625 -56.9375 C 37.863281 -56.9375 33.914062 -55.601562 30.71875 -52.9375 C 27.53125 -50.28125 25.582031 -46.644531 24.875 -42.03125 L 60.125 -42.03125 C 59.414062 -46.550781 57.460938 -50.164062 54.265625 -52.875 C 51.078125 -55.582031 47.175781 -56.9375 42.5625 -56.9375 Z M 42.5625 -56.9375 "/></g></g></g><g fill="#485de6" fill-opacity="1"><g transform="translate(141.518803, 304.756949)"><g><path d="M 53.078125 -72.625 C 61.941406 -72.625 69.097656 -69.960938 74.546875 -64.640625 C 80.003906 -59.328125 82.734375 -51.4375 82.734375 -40.96875 L 82.734375 0 L 61.984375 0 L 61.984375 -37.78125 C 61.984375 -43.457031 60.738281 -47.691406 58.25 -50.484375 C 55.769531 -53.273438 52.179688 -54.671875 47.484375 -54.671875 C 42.253906 -54.671875 38.085938 -53.050781 34.984375 -49.8125 C 31.878906 -46.570312 30.328125 -41.757812 30.328125 -35.375 L 30.328125 0 L 9.578125 0 L 9.578125 -71.5625 L 29.390625 -71.5625 L 29.390625 -63.1875 C 32.140625 -66.195312 35.550781 -68.519531 39.625 -70.15625 C 43.707031 -71.800781 48.191406 -72.625 53.078125 -72.625 Z M 53.078125 -72.625 "/></g></g></g><g fill="#485de6" fill-opacity="1"><g transform="translate(226.772585, 304.756949)"><g><path d="M 33.65625 1.0625 C 27.707031 1.0625 21.894531 0.332031 16.21875 -1.125 C 10.550781 -2.59375 6.03125 -4.4375 2.65625 -6.65625 L 9.578125 -21.546875 C 12.765625 -19.503906 16.617188 -17.835938 21.140625 -16.546875 C 25.671875 -15.265625 30.109375 -14.625 34.453125 -14.625 C 43.234375 -14.625 47.625 -16.800781 47.625 -21.15625 C 47.625 -23.1875 46.425781 -24.644531 44.03125 -25.53125 C 41.632812 -26.425781 37.953125 -27.179688 32.984375 -27.796875 C 27.128906 -28.679688 22.296875 -29.703125 18.484375 -30.859375 C 14.671875 -32.015625 11.367188 -34.054688 8.578125 -36.984375 C 5.785156 -39.910156 4.390625 -44.078125 4.390625 -49.484375 C 4.390625 -54.003906 5.695312 -58.015625 8.3125 -61.515625 C 10.925781 -65.023438 14.738281 -67.753906 19.75 -69.703125 C 24.757812 -71.648438 30.679688 -72.625 37.515625 -72.625 C 42.566406 -72.625 47.597656 -72.066406 52.609375 -70.953125 C 57.617188 -69.847656 61.765625 -68.320312 65.046875 -66.375 L 58.125 -51.609375 C 51.832031 -55.160156 44.960938 -56.9375 37.515625 -56.9375 C 33.078125 -56.9375 29.75 -56.3125 27.53125 -55.0625 C 25.3125 -53.820312 24.203125 -52.226562 24.203125 -50.28125 C 24.203125 -48.0625 25.398438 -46.507812 27.796875 -45.625 C 30.191406 -44.738281 34.003906 -43.894531 39.234375 -43.09375 C 45.085938 -42.125 49.875 -41.082031 53.59375 -39.96875 C 57.320312 -38.863281 60.5625 -36.847656 63.3125 -33.921875 C 66.0625 -30.992188 67.4375 -26.914062 67.4375 -21.6875 C 67.4375 -17.25 66.101562 -13.300781 63.4375 -9.84375 C 60.78125 -6.382812 56.898438 -3.703125 51.796875 -1.796875 C 46.703125 0.109375 40.65625 1.0625 33.65625 1.0625 Z M 33.65625 1.0625 "/></g></g></g><g fill="#485de6" fill-opacity="1"><g transform="translate(290.745958, 304.756949)"><g><path d="M 79.671875 -35.515625 C 79.671875 -35.242188 79.539062 -33.378906 79.28125 -29.921875 L 25.140625 -29.921875 C 26.117188 -25.492188 28.425781 -21.992188 32.0625 -19.421875 C 35.695312 -16.847656 40.21875 -15.5625 45.625 -15.5625 C 49.351562 -15.5625 52.65625 -16.113281 55.53125 -17.21875 C 58.414062 -18.332031 61.097656 -20.085938 63.578125 -22.484375 L 74.625 -10.515625 C 67.882812 -2.796875 58.039062 1.0625 45.09375 1.0625 C 37.019531 1.0625 29.878906 -0.507812 23.671875 -3.65625 C 17.460938 -6.800781 12.671875 -11.164062 9.296875 -16.75 C 5.929688 -22.34375 4.25 -28.6875 4.25 -35.78125 C 4.25 -42.789062 5.910156 -49.109375 9.234375 -54.734375 C 12.566406 -60.367188 17.132812 -64.757812 22.9375 -67.90625 C 28.75 -71.050781 35.25 -72.625 42.4375 -72.625 C 49.4375 -72.625 55.773438 -71.113281 61.453125 -68.09375 C 67.128906 -65.082031 71.582031 -60.757812 74.8125 -55.125 C 78.050781 -49.5 79.671875 -42.960938 79.671875 -35.515625 Z M 42.5625 -56.9375 C 37.863281 -56.9375 33.914062 -55.601562 30.71875 -52.9375 C 27.53125 -50.28125 25.582031 -46.644531 24.875 -42.03125 L 60.125 -42.03125 C 59.414062 -46.550781 57.460938 -50.164062 54.265625 -52.875 C 51.078125 -55.582031 47.175781 -56.9375 42.5625 -56.9375 Z M 42.5625 -56.9375 "/></g></g></g></svg>