<svg xmlns="http://www.w3.org/2000/svg" xmlns:xlink="http://www.w3.org/1999/xlink" width="500" zoomAndPan="magnify" viewBox="0 0 375 374.999991" height="500" preserveAspectRatio="xMidYMid meet" version="1.0"><defs><g/><clipPath id="62078f9c41"><path d="M 250 50 L 312 50 L 312 112 L 250 112 Z M 250 50 " clip-rule="nonzero"/></clipPath><clipPath id="887bc07f6f"><path d="M 267.082031 34.308594 L 327.539062 94.765625 L 286.703125 135.601562 L 226.246094 75.144531 Z M 267.082031 34.308594 " clip-rule="nonzero"/></clipPath><clipPath id="d8074d6536"><path d="M 267.082031 34.308594 L 327.539062 94.765625 L 286.703125 135.601562 L 226.246094 75.144531 Z M 267.082031 34.308594 " clip-rule="nonzero"/></clipPath><clipPath id="f5751c4831"><path d="M 250 70 L 292 70 L 292 112 L 250 112 Z M 250 70 " clip-rule="nonzero"/></clipPath><clipPath id="8c158c456d"><path d="M 267.082031 34.308594 L 327.539062 94.765625 L 286.703125 135.601562 L 226.246094 75.144531 Z M 267.082031 34.308594 " clip-rule="nonzero"/></clipPath><clipPath id="240c4cec5b"><path d="M 267.082031 34.308594 L 327.539062 94.765625 L 286.703125 135.601562 L 226.246094 75.144531 Z M 267.082031 34.308594 " clip-rule="nonzero"/></clipPath><clipPath id="e71cae77ae"><path d="M 250 90 L 272 90 L 272 112 L 250 112 Z M 250 90 " clip-rule="nonzero"/></clipPath><clipPath id="7d8816d1d2"><path d="M 267.082031 34.308594 L 327.539062 94.765625 L 286.703125 135.601562 L 226.246094 75.144531 Z M 267.082031 34.308594 " clip-rule="nonzero"/></clipPath><clipPath id="23c8b2e07c"><path d="M 267.082031 34.308594 L 327.539062 94.765625 L 286.703125 135.601562 L 226.246094 75.144531 Z M 267.082031 34.308594 " clip-rule="nonzero"/></clipPath><clipPath id="38617d5d52"><path d="M 235.9375 89.683594 L 271.453125 89.683594 L 271.453125 114.742188 L 235.9375 114.742188 Z M 235.9375 89.683594 " clip-rule="nonzero"/></clipPath><clipPath id="c6ecb7e568"><path d="M 188 97 L 266 97 L 266 175 L 188 175 Z M 188 97 " clip-rule="nonzero"/></clipPath><clipPath id="6c6eed9ed4"><path d="M 207.09375 201.253906 L 160.953125 155.113281 L 245.808594 70.261719 L 291.945312 116.398438 Z M 207.09375 201.253906 " clip-rule="nonzero"/></clipPath><clipPath id="4c23246130"><path d="M 160.707031 154.863281 L 206.84375 201.003906 L 291.695312 116.152344 L 245.558594 70.011719 Z M 160.707031 154.863281 " clip-rule="nonzero"/></clipPath><clipPath id="916bb87baa"><path d="M 139 131 L 183 131 L 183 175 L 139 175 Z M 139 131 " clip-rule="nonzero"/></clipPath><clipPath id="6b0ad3becc"><path d="M 197.800781 164.238281 L 171.8125 190.222656 L 123.554688 141.960938 L 149.539062 115.976562 Z M 197.800781 164.238281 " clip-rule="nonzero"/></clipPath><clipPath id="41d1e92342"><path d="M 171.613281 190.421875 L 197.601562 164.4375 L 149.339844 116.175781 L 123.355469 142.160156 Z M 171.613281 190.421875 " clip-rule="nonzero"/></clipPath></defs><rect x="-37.5" width="450" fill="#ffffff" y="-37.499999" height="449.999989" fill-opacity="1"/><rect x="-37.5" width="450" fill="#35384b" y="-37.499999" height="449.999989" fill-opacity="1"/><g clip-path="url(#62078f9c41)"><g clip-path="url(#887bc07f6f)"><g clip-path="url(#d8074d6536)"><path fill="#485de6" d="M 311.101562 111.160156 C 310.757812 78.109375 284.113281 51.351562 251.109375 50.832031 C 250.570312 50.820312 250.121094 51.265625 250.121094 51.804688 L 250.121094 60.734375 C 278.324219 60.734375 301.191406 83.601562 301.191406 111.804688 L 310.457031 111.800781 C 310.8125 111.804688 311.105469 111.511719 311.101562 111.160156 " fill-opacity="1" fill-rule="nonzero"/></g></g></g><g clip-path="url(#f5751c4831)"><g clip-path="url(#8c158c456d)"><g clip-path="url(#240c4cec5b)"><path fill="#485de6" d="M 251.121094 70.742188 C 250.578125 70.734375 250.121094 71.183594 250.121094 71.722656 L 250.121094 79.886719 C 267.746094 79.886719 282.039062 94.175781 282.039062 111.800781 L 290.542969 111.804688 C 290.894531 111.804688 291.191406 111.5 291.1875 111.148438 C 290.84375 89.105469 273.121094 71.269531 251.121094 70.742188 " fill-opacity="1" fill-rule="nonzero"/></g></g></g><g clip-path="url(#e71cae77ae)"><g clip-path="url(#7d8816d1d2)"><g clip-path="url(#23c8b2e07c)"><path fill="#485de6" d="M 251.128906 90.363281 C 250.585938 90.335938 250.121094 90.792969 250.121094 91.34375 L 250.121094 98.5625 C 257.433594 98.5625 263.359375 104.492188 263.359375 111.800781 L 270.929688 111.804688 C 271.285156 111.804688 271.589844 111.5 271.578125 111.144531 C 271.234375 99.914062 262.3125 90.878906 251.128906 90.363281 " fill-opacity="1" fill-rule="nonzero"/></g></g></g><g clip-path="url(#38617d5d52)"><path fill="#35384b" d="M 235.9375 89.683594 L 271.46875 89.683594 L 271.46875 114.742188 L 235.9375 114.742188 Z M 235.9375 89.683594 " fill-opacity="1" fill-rule="nonzero"/></g><g clip-path="url(#c6ecb7e568)"><g clip-path="url(#6c6eed9ed4)"><g clip-path="url(#4c23246130)"><path fill="#43b647" d="M 245.992188 155.128906 C 267.226562 133.894531 265.070312 97.320312 265.070312 97.320312 C 265.070312 97.320312 228.042969 94.714844 206.8125 115.949219 C 185.578125 137.183594 188.179688 174.207031 188.179688 174.207031 C 188.179688 174.207031 224.757812 176.363281 245.992188 155.128906 " fill-opacity="1" fill-rule="nonzero"/></g></g></g><g clip-path="url(#916bb87baa)"><g clip-path="url(#6b0ad3becc)"><g clip-path="url(#41d1e92342)"><path fill="#359238" d="M 171.765625 142.28125 C 159.78125 130.296875 139.132812 131.511719 139.132812 131.511719 C 139.132812 131.511719 137.664062 152.414062 149.648438 164.398438 C 161.636719 176.382812 182.535156 174.914062 182.535156 174.914062 C 182.535156 174.914062 183.753906 154.269531 171.765625 142.28125 " fill-opacity="1" fill-rule="nonzero"/></g></g></g><g fill="#ffffff" fill-opacity="1"><g transform="translate(122.361438, 292.327481)"><g><path d="M 65.21875 1.59375 C 53.957031 1.59375 43.851562 -0.757812 34.90625 -5.46875 C 25.957031 -10.175781 18.960938 -16.703125 13.921875 -25.046875 C 8.878906 -33.398438 6.359375 -42.882812 6.359375 -53.5 C 6.359375 -64.101562 8.878906 -73.578125 13.921875 -81.921875 C 18.960938 -90.273438 25.957031 -96.804688 34.90625 -101.515625 C 43.851562 -106.222656 53.957031 -108.578125 65.21875 -108.578125 C 76.488281 -108.578125 86.566406 -106.222656 95.453125 -101.515625 C 104.335938 -96.804688 111.296875 -90.273438 116.328125 -81.921875 C 121.367188 -73.578125 123.890625 -64.101562 123.890625 -53.5 C 123.890625 -42.882812 121.367188 -33.398438 116.328125 -25.046875 C 111.296875 -16.703125 104.335938 -10.175781 95.453125 -5.46875 C 86.566406 -0.757812 76.488281 1.59375 65.21875 1.59375 Z M 65.21875 -23.859375 C 73.175781 -23.859375 79.707031 -26.539062 84.8125 -31.90625 C 89.914062 -37.28125 92.46875 -44.476562 92.46875 -53.5 C 92.46875 -62.507812 89.914062 -69.695312 84.8125 -75.0625 C 79.707031 -80.4375 73.175781 -83.125 65.21875 -83.125 C 57.269531 -83.125 50.707031 -80.4375 45.53125 -75.0625 C 40.363281 -69.695312 37.78125 -62.507812 37.78125 -53.5 C 37.78125 -44.476562 40.363281 -37.28125 45.53125 -31.90625 C 50.707031 -26.539062 57.269531 -23.859375 65.21875 -23.859375 Z M 65.21875 -23.859375 "/></g></g></g></svg>