<svg xmlns="http://www.w3.org/2000/svg" xmlns:xlink="http://www.w3.org/1999/xlink" width="500" zoomAndPan="magnify" viewBox="0 0 375 374.999991" height="500" preserveAspectRatio="xMidYMid meet" version="1.0"><defs><g/><clipPath id="11283a3ec4"><path d="M 148 128 L 168 128 L 168 147 L 148 147 Z M 148 128 " clip-rule="nonzero"/></clipPath><clipPath id="f198ee3d93"><path d="M 174.121094 142.164062 L 162.984375 153.304688 L 142.304688 132.621094 L 153.441406 121.484375 Z M 174.121094 142.164062 " clip-rule="nonzero"/></clipPath><clipPath id="427417e4e4"><path d="M 162.84375 153.445312 L 173.980469 142.308594 L 153.300781 121.625 L 142.164062 132.761719 Z M 162.84375 153.445312 " clip-rule="nonzero"/></clipPath><clipPath id="8fe9194f6e"><path d="M 199 91 L 226 91 L 226 118 L 199 118 Z M 199 91 " clip-rule="nonzero"/></clipPath><clipPath id="1073cd148c"><path d="M 206.375 84.511719 L 232.363281 110.496094 L 214.863281 128 L 188.875 102.011719 Z M 206.375 84.511719 " clip-rule="nonzero"/></clipPath><clipPath id="9842c54a02"><path d="M 206.375 84.511719 L 232.363281 110.496094 L 214.863281 128 L 188.875 102.011719 Z M 206.375 84.511719 " clip-rule="nonzero"/></clipPath><clipPath id="e1755d348a"><path d="M 199 100 L 217 100 L 217 118 L 199 118 Z M 199 100 " clip-rule="nonzero"/></clipPath><clipPath id="ad9cb9a297"><path d="M 206.375 84.511719 L 232.363281 110.496094 L 214.863281 128 L 188.875 102.011719 Z M 206.375 84.511719 " clip-rule="nonzero"/></clipPath><clipPath id="5d5371240e"><path d="M 206.375 84.511719 L 232.363281 110.496094 L 214.863281 128 L 188.875 102.011719 Z M 206.375 84.511719 " clip-rule="nonzero"/></clipPath><clipPath id="2da2d76cbf"><path d="M 199 108 L 209 108 L 209 118 L 199 118 Z M 199 108 " clip-rule="nonzero"/></clipPath><clipPath id="07598cf548"><path d="M 206.375 84.511719 L 232.363281 110.496094 L 214.863281 128 L 188.875 102.011719 Z M 206.375 84.511719 " clip-rule="nonzero"/></clipPath><clipPath id="f1de2f23ed"><path d="M 206.375 84.511719 L 232.363281 110.496094 L 214.863281 128 L 188.875 102.011719 Z M 206.375 84.511719 " clip-rule="nonzero"/></clipPath><clipPath id="efca65b4d1"><path d="M 189.898438 108.234375 L 208.597656 108.234375 L 208.597656 119.832031 L 189.898438 119.832031 Z M 189.898438 108.234375 " clip-rule="nonzero"/></clipPath><clipPath id="3921dade2a"><path d="M 169 113 L 204 113 L 204 147 L 169 147 Z M 169 113 " clip-rule="nonzero"/></clipPath><clipPath id="d1b671425f"><path d="M 178.136719 158.113281 L 157.984375 137.960938 L 194.574219 101.367188 L 214.730469 121.519531 Z M 178.136719 158.113281 " clip-rule="nonzero"/></clipPath><clipPath id="55301683ef"><path d="M 158.148438 138.125 L 178.300781 158.28125 L 214.894531 121.6875 L 194.742188 101.535156 Z M 158.148438 138.125 " clip-rule="nonzero"/></clipPath></defs><rect x="-37.5" width="450" fill="#ffffff" y="-37.499999" height="449.999989" fill-opacity="1"/><rect x="-37.5" width="450" fill="#35384b" y="-37.499999" height="449.999989" fill-opacity="1"/><g clip-path="url(#11283a3ec4)"><g clip-path="url(#f198ee3d93)"><g clip-path="url(#427417e4e4)"><path fill="#359238" d="M 162.90625 132.707031 C 157.746094 127.542969 148.851562 128.066406 148.851562 128.066406 C 148.851562 128.066406 148.21875 137.070312 153.382812 142.230469 C 158.542969 147.394531 167.546875 146.761719 167.546875 146.761719 C 167.546875 146.761719 168.070312 137.867188 162.90625 132.707031 " fill-opacity="1" fill-rule="nonzero"/></g></g></g><g clip-path="url(#8fe9194f6e)"><g clip-path="url(#1073cd148c)"><g clip-path="url(#9842c54a02)"><path fill="#485de6" d="M 225.351562 117.632812 C 225.203125 103.386719 213.71875 91.855469 199.492188 91.632812 C 199.261719 91.625 199.066406 91.820312 199.066406 92.050781 L 199.066406 95.898438 C 211.226562 95.898438 221.082031 105.753906 221.082031 117.914062 L 225.074219 117.910156 C 225.226562 117.910156 225.355469 117.785156 225.351562 117.632812 " fill-opacity="1" fill-rule="nonzero"/></g></g></g><g clip-path="url(#e1755d348a)"><g clip-path="url(#ad9cb9a297)"><g clip-path="url(#5d5371240e)"><path fill="#485de6" d="M 199.5 100.214844 C 199.265625 100.210938 199.070312 100.402344 199.070312 100.636719 L 199.070312 104.152344 C 206.664062 104.15625 212.824219 110.316406 212.824219 117.910156 L 216.492188 117.914062 C 216.644531 117.914062 216.769531 117.78125 216.769531 117.628906 C 216.621094 108.128906 208.980469 100.441406 199.5 100.210938 " fill-opacity="1" fill-rule="nonzero"/></g></g></g><g clip-path="url(#2da2d76cbf)"><g clip-path="url(#07598cf548)"><g clip-path="url(#f1de2f23ed)"><path fill="#485de6" d="M 199.503906 108.671875 C 199.269531 108.660156 199.070312 108.855469 199.066406 109.09375 L 199.066406 112.203125 C 202.21875 112.203125 204.773438 114.761719 204.773438 117.910156 L 208.039062 117.914062 C 208.191406 117.914062 208.320312 117.78125 208.316406 117.628906 C 208.167969 112.789062 204.324219 108.890625 199.503906 108.671875 " fill-opacity="1" fill-rule="nonzero"/></g></g></g><g clip-path="url(#efca65b4d1)"><path fill="#35384b" d="M 189.898438 108.234375 L 208.609375 108.234375 L 208.609375 119.832031 L 189.898438 119.832031 Z M 189.898438 108.234375 " fill-opacity="1" fill-rule="nonzero"/></g><g fill="#ffffff" fill-opacity="1"><g transform="translate(43.698319, 196.84927)"><g><path d="M 51.34375 -22.875 C 51.34375 -22.707031 51.253906 -21.507812 51.078125 -19.28125 L 16.203125 -19.28125 C 16.828125 -16.425781 18.3125 -14.171875 20.65625 -12.515625 C 23 -10.859375 25.910156 -10.03125 29.390625 -10.03125 C 31.796875 -10.03125 33.925781 -10.382812 35.78125 -11.09375 C 37.632812 -11.8125 39.363281 -12.941406 40.96875 -14.484375 L 48.078125 -6.765625 C 43.734375 -1.796875 37.390625 0.6875 29.046875 0.6875 C 23.847656 0.6875 19.25 -0.328125 15.25 -2.359375 C 11.25 -4.390625 8.164062 -7.203125 6 -10.796875 C 3.832031 -14.398438 2.75 -18.484375 2.75 -23.046875 C 2.75 -27.566406 3.816406 -31.640625 5.953125 -35.265625 C 8.097656 -38.890625 11.039062 -41.71875 14.78125 -43.75 C 18.519531 -45.78125 22.707031 -46.796875 27.34375 -46.796875 C 31.851562 -46.796875 35.9375 -45.820312 39.59375 -43.875 C 43.25 -41.9375 46.117188 -39.148438 48.203125 -35.515625 C 50.296875 -31.890625 51.34375 -27.675781 51.34375 -22.875 Z M 27.421875 -36.6875 C 24.390625 -36.6875 21.847656 -35.828125 19.796875 -34.109375 C 17.742188 -32.390625 16.488281 -30.046875 16.03125 -27.078125 L 38.734375 -27.078125 C 38.273438 -29.992188 37.015625 -32.320312 34.953125 -34.0625 C 32.898438 -35.8125 30.390625 -36.6875 27.421875 -36.6875 Z M 27.421875 -36.6875 "/></g></g></g><g fill="#ffffff" fill-opacity="1"><g transform="translate(93.487825, 196.84927)"><g><path d="M 28.453125 0.6875 C 23.535156 0.6875 19.117188 -0.328125 15.203125 -2.359375 C 11.296875 -4.390625 8.242188 -7.203125 6.046875 -10.796875 C 3.847656 -14.398438 2.75 -18.484375 2.75 -23.046875 C 2.75 -27.617188 3.847656 -31.703125 6.046875 -35.296875 C 8.242188 -38.898438 11.296875 -41.71875 15.203125 -43.75 C 19.117188 -45.78125 23.535156 -46.796875 28.453125 -46.796875 C 33.304688 -46.796875 37.546875 -45.78125 41.171875 -43.75 C 44.804688 -41.71875 47.453125 -38.816406 49.109375 -35.046875 L 38.734375 -29.484375 C 36.335938 -33.710938 32.882812 -35.828125 28.375 -35.828125 C 24.882812 -35.828125 21.992188 -34.679688 19.703125 -32.390625 C 17.421875 -30.109375 16.28125 -26.992188 16.28125 -23.046875 C 16.28125 -19.109375 17.421875 -15.992188 19.703125 -13.703125 C 21.992188 -11.421875 24.882812 -10.28125 28.375 -10.28125 C 32.9375 -10.28125 36.390625 -12.394531 38.734375 -16.625 L 49.109375 -10.96875 C 47.453125 -7.3125 44.804688 -4.453125 41.171875 -2.390625 C 37.546875 -0.335938 33.304688 0.6875 28.453125 0.6875 Z M 28.453125 0.6875 "/></g></g></g><g fill="#ffffff" fill-opacity="1"><g transform="translate(139.849454, 196.84927)"><g><path d="M 28.109375 0.6875 C 23.253906 0.6875 18.894531 -0.328125 15.03125 -2.359375 C 11.175781 -4.390625 8.164062 -7.203125 6 -10.796875 C 3.832031 -14.398438 2.75 -18.484375 2.75 -23.046875 C 2.75 -27.617188 3.832031 -31.703125 6 -35.296875 C 8.164062 -38.898438 11.175781 -41.71875 15.03125 -43.75 C 18.894531 -45.78125 23.253906 -46.796875 28.109375 -46.796875 C 32.960938 -46.796875 37.300781 -45.78125 41.125 -43.75 C 44.957031 -41.71875 47.957031 -38.898438 50.125 -35.296875 C 52.300781 -31.703125 53.390625 -27.617188 53.390625 -23.046875 C 53.390625 -18.484375 52.300781 -14.398438 50.125 -10.796875 C 47.957031 -7.203125 44.957031 -4.390625 41.125 -2.359375 C 37.300781 -0.328125 32.960938 0.6875 28.109375 0.6875 Z M 28.109375 -10.28125 C 31.535156 -10.28125 34.347656 -11.4375 36.546875 -13.75 C 38.753906 -16.0625 39.859375 -19.160156 39.859375 -23.046875 C 39.859375 -26.929688 38.753906 -30.03125 36.546875 -32.34375 C 34.347656 -34.664062 31.535156 -35.828125 28.109375 -35.828125 C 24.679688 -35.828125 21.851562 -34.664062 19.625 -32.34375 C 17.394531 -30.03125 16.28125 -26.929688 16.28125 -23.046875 C 16.28125 -19.160156 17.394531 -16.0625 19.625 -13.75 C 21.851562 -11.4375 24.679688 -10.28125 28.109375 -10.28125 Z M 28.109375 -10.28125 "/></g></g></g><g clip-path="url(#3921dade2a)"><g clip-path="url(#d1b671425f)"><g clip-path="url(#55301683ef)"><path fill="#43b647" d="M 194.898438 138.238281 C 204.046875 129.089844 203.117188 113.332031 203.117188 113.332031 C 203.117188 113.332031 187.164062 112.207031 178.015625 121.355469 C 168.867188 130.503906 169.988281 146.457031 169.988281 146.457031 C 169.988281 146.457031 185.75 147.386719 194.898438 138.238281 " fill-opacity="1" fill-rule="nonzero"/></g></g></g><g fill="#485de6" fill-opacity="1"><g transform="translate(43.451086, 259.714191)"><g><path d="M 21.6875 0.6875 C 17.851562 0.6875 14.109375 0.21875 10.453125 -0.71875 C 6.796875 -1.664062 3.882812 -2.851562 1.71875 -4.28125 L 6.171875 -13.890625 C 8.222656 -12.566406 10.707031 -11.488281 13.625 -10.65625 C 16.539062 -9.832031 19.398438 -9.421875 22.203125 -9.421875 C 27.859375 -9.421875 30.6875 -10.820312 30.6875 -13.625 C 30.6875 -14.9375 29.910156 -15.878906 28.359375 -16.453125 C 26.816406 -17.023438 24.445312 -17.507812 21.25 -17.90625 C 17.476562 -18.476562 14.363281 -19.132812 11.90625 -19.875 C 9.457031 -20.625 7.332031 -21.941406 5.53125 -23.828125 C 3.726562 -25.710938 2.828125 -28.394531 2.828125 -31.875 C 2.828125 -34.789062 3.671875 -37.375 5.359375 -39.625 C 7.046875 -41.882812 9.5 -43.644531 12.71875 -44.90625 C 15.945312 -46.164062 19.765625 -46.796875 24.171875 -46.796875 C 27.421875 -46.796875 30.660156 -46.4375 33.890625 -45.71875 C 37.117188 -45.007812 39.789062 -44.023438 41.90625 -42.765625 L 37.453125 -33.25 C 33.398438 -35.539062 28.972656 -36.6875 24.171875 -36.6875 C 21.316406 -36.6875 19.171875 -36.285156 17.734375 -35.484375 C 16.304688 -34.679688 15.59375 -33.648438 15.59375 -32.390625 C 15.59375 -30.960938 16.363281 -29.960938 17.90625 -29.390625 C 19.445312 -28.828125 21.90625 -28.285156 25.28125 -27.765625 C 29.050781 -27.140625 32.132812 -26.46875 34.53125 -25.75 C 36.9375 -25.039062 39.023438 -23.742188 40.796875 -21.859375 C 42.566406 -19.972656 43.453125 -17.34375 43.453125 -13.96875 C 43.453125 -11.113281 42.59375 -8.570312 40.875 -6.34375 C 39.164062 -4.113281 36.664062 -2.382812 33.375 -1.15625 C 30.09375 0.0703125 26.195312 0.6875 21.6875 0.6875 Z M 21.6875 0.6875 "/></g></g></g><g fill="#485de6" fill-opacity="1"><g transform="translate(84.670883, 259.714191)"><g><path d="M 51.34375 -22.875 C 51.34375 -22.707031 51.253906 -21.507812 51.078125 -19.28125 L 16.203125 -19.28125 C 16.828125 -16.425781 18.3125 -14.171875 20.65625 -12.515625 C 23 -10.859375 25.910156 -10.03125 29.390625 -10.03125 C 31.796875 -10.03125 33.925781 -10.382812 35.78125 -11.09375 C 37.632812 -11.8125 39.363281 -12.941406 40.96875 -14.484375 L 48.078125 -6.765625 C 43.734375 -1.796875 37.390625 0.6875 29.046875 0.6875 C 23.847656 0.6875 19.25 -0.328125 15.25 -2.359375 C 11.25 -4.390625 8.164062 -7.203125 6 -10.796875 C 3.832031 -14.398438 2.75 -18.484375 2.75 -23.046875 C 2.75 -27.566406 3.816406 -31.640625 5.953125 -35.265625 C 8.097656 -38.890625 11.039062 -41.71875 14.78125 -43.75 C 18.519531 -45.78125 22.707031 -46.796875 27.34375 -46.796875 C 31.851562 -46.796875 35.9375 -45.820312 39.59375 -43.875 C 43.25 -41.9375 46.117188 -39.148438 48.203125 -35.515625 C 50.296875 -31.890625 51.34375 -27.675781 51.34375 -22.875 Z M 27.421875 -36.6875 C 24.390625 -36.6875 21.847656 -35.828125 19.796875 -34.109375 C 17.742188 -32.390625 16.488281 -30.046875 16.03125 -27.078125 L 38.734375 -27.078125 C 38.273438 -29.992188 37.015625 -32.320312 34.953125 -34.0625 C 32.898438 -35.8125 30.390625 -36.6875 27.421875 -36.6875 Z M 27.421875 -36.6875 "/></g></g></g><g fill="#485de6" fill-opacity="1"><g transform="translate(134.46039, 259.714191)"><g><path d="M 34.203125 -46.796875 C 39.910156 -46.796875 44.519531 -45.082031 48.03125 -41.65625 C 51.550781 -38.226562 53.3125 -33.140625 53.3125 -26.390625 L 53.3125 0 L 39.9375 0 L 39.9375 -24.34375 C 39.9375 -28 39.132812 -30.722656 37.53125 -32.515625 C 35.9375 -34.316406 33.625 -35.21875 30.59375 -35.21875 C 27.226562 -35.21875 24.546875 -34.175781 22.546875 -32.09375 C 20.546875 -30.007812 19.546875 -26.910156 19.546875 -22.796875 L 19.546875 0 L 6.171875 0 L 6.171875 -46.109375 L 18.9375 -46.109375 L 18.9375 -40.703125 C 20.707031 -42.648438 22.90625 -44.148438 25.53125 -45.203125 C 28.164062 -46.265625 31.054688 -46.796875 34.203125 -46.796875 Z M 34.203125 -46.796875 "/></g></g></g><g fill="#485de6" fill-opacity="1"><g transform="translate(189.391732, 259.714191)"><g><path d="M 21.6875 0.6875 C 17.851562 0.6875 14.109375 0.21875 10.453125 -0.71875 C 6.796875 -1.664062 3.882812 -2.851562 1.71875 -4.28125 L 6.171875 -13.890625 C 8.222656 -12.566406 10.707031 -11.488281 13.625 -10.65625 C 16.539062 -9.832031 19.398438 -9.421875 22.203125 -9.421875 C 27.859375 -9.421875 30.6875 -10.820312 30.6875 -13.625 C 30.6875 -14.9375 29.910156 -15.878906 28.359375 -16.453125 C 26.816406 -17.023438 24.445312 -17.507812 21.25 -17.90625 C 17.476562 -18.476562 14.363281 -19.132812 11.90625 -19.875 C 9.457031 -20.625 7.332031 -21.941406 5.53125 -23.828125 C 3.726562 -25.710938 2.828125 -28.394531 2.828125 -31.875 C 2.828125 -34.789062 3.671875 -37.375 5.359375 -39.625 C 7.046875 -41.882812 9.5 -43.644531 12.71875 -44.90625 C 15.945312 -46.164062 19.765625 -46.796875 24.171875 -46.796875 C 27.421875 -46.796875 30.660156 -46.4375 33.890625 -45.71875 C 37.117188 -45.007812 39.789062 -44.023438 41.90625 -42.765625 L 37.453125 -33.25 C 33.398438 -35.539062 28.972656 -36.6875 24.171875 -36.6875 C 21.316406 -36.6875 19.171875 -36.285156 17.734375 -35.484375 C 16.304688 -34.679688 15.59375 -33.648438 15.59375 -32.390625 C 15.59375 -30.960938 16.363281 -29.960938 17.90625 -29.390625 C 19.445312 -28.828125 21.90625 -28.285156 25.28125 -27.765625 C 29.050781 -27.140625 32.132812 -26.46875 34.53125 -25.75 C 36.9375 -25.039062 39.023438 -23.742188 40.796875 -21.859375 C 42.566406 -19.972656 43.453125 -17.34375 43.453125 -13.96875 C 43.453125 -11.113281 42.59375 -8.570312 40.875 -6.34375 C 39.164062 -4.113281 36.664062 -2.382812 33.375 -1.15625 C 30.09375 0.0703125 26.195312 0.6875 21.6875 0.6875 Z M 21.6875 0.6875 "/></g></g></g><g fill="#485de6" fill-opacity="1"><g transform="translate(230.611524, 259.714191)"><g><path d="M 51.34375 -22.875 C 51.34375 -22.707031 51.253906 -21.507812 51.078125 -19.28125 L 16.203125 -19.28125 C 16.828125 -16.425781 18.3125 -14.171875 20.65625 -12.515625 C 23 -10.859375 25.910156 -10.03125 29.390625 -10.03125 C 31.796875 -10.03125 33.925781 -10.382812 35.78125 -11.09375 C 37.632812 -11.8125 39.363281 -12.941406 40.96875 -14.484375 L 48.078125 -6.765625 C 43.734375 -1.796875 37.390625 0.6875 29.046875 0.6875 C 23.847656 0.6875 19.25 -0.328125 15.25 -2.359375 C 11.25 -4.390625 8.164062 -7.203125 6 -10.796875 C 3.832031 -14.398438 2.75 -18.484375 2.75 -23.046875 C 2.75 -27.566406 3.816406 -31.640625 5.953125 -35.265625 C 8.097656 -38.890625 11.039062 -41.71875 14.78125 -43.75 C 18.519531 -45.78125 22.707031 -46.796875 27.34375 -46.796875 C 31.851562 -46.796875 35.9375 -45.820312 39.59375 -43.875 C 43.25 -41.9375 46.117188 -39.148438 48.203125 -35.515625 C 50.296875 -31.890625 51.34375 -27.675781 51.34375 -22.875 Z M 27.421875 -36.6875 C 24.390625 -36.6875 21.847656 -35.828125 19.796875 -34.109375 C 17.742188 -32.390625 16.488281 -30.046875 16.03125 -27.078125 L 38.734375 -27.078125 C 38.273438 -29.992188 37.015625 -32.320312 34.953125 -34.0625 C 32.898438 -35.8125 30.390625 -36.6875 27.421875 -36.6875 Z M 27.421875 -36.6875 "/></g></g></g></svg>